<?xml version="1.0" encoding="UTF-8"?>
<svg id="Layer_2" data-name="Layer 2" xmlns="http://www.w3.org/2000/svg" viewBox="0 0 138.91 122.47">
  <g id="Layer_1-2" data-name="Layer 1">
    <polygon points="71.32 27.35 71.03 26.65 138.4 0 138.69 .7 71.32 27.35"/>
    <polygon points="76.93 29.24 76.65 28.52 138.41 4.34 138.69 5.06 76.93 29.24"/>
    <polygon points="83.36 30.81 83.09 30.09 138.42 9.14 138.69 9.87 83.36 30.81"/>
    <polygon points="89.35 33.4 89.07 32.69 138.41 13.36 138.69 14.07 89.35 33.4"/>
    <polygon points="95.32 35.77 95.05 35.03 138.42 17.91 138.69 18.64 95.32 35.77"/>
    <polygon points="102.39 38.41 102.11 37.69 138.41 22.55 138.69 23.27 102.39 38.41"/>
    <polygon points="107.83 39.86 107.55 39.14 138.41 26.76 138.69 27.47 107.83 39.86"/>
    <polygon points="114.11 42.48 113.83 41.73 138.41 31.02 138.69 31.76 114.11 42.48"/>
    <polygon points="119.64 44.93 119.35 44.2 138.41 35.77 138.69 36.5 119.64 44.93"/>
    <polygon points="126 47.51 125.66 46.84 138.35 41.04 138.69 41.71 126 47.51"/>
    <rect x="131.31" y="47.99" width="7.74" height=".75" transform="translate(-8.33 52.69) rotate(-21.41)"/>
    <polygon points="66.64 27.35 .09 .7 .37 0 66.92 26.65 66.64 27.35"/>
    <polygon points="61.41 29.79 0 5.8 .27 5.1 61.68 29.09 61.41 29.79"/>
    <rect x="27.16" y="-8.54" width=".75" height="58.91" transform="translate(-2.07 38.79) rotate(-68.33)"/>
    <polygon points="49.52 34.33 .03 14.47 .31 13.78 49.8 33.63 49.52 34.33"/>
    <polygon points="44.04 37.14 0 18.93 .28 18.21 44.32 36.42 44.04 37.14"/>
    <polygon points="37.77 40.05 .03 23.51 .31 22.8 38.06 39.34 37.77 40.05"/>
    <polygon points="32.53 42.32 .11 27.86 .41 27.18 32.82 41.64 32.53 42.32"/>
    <polygon points="25.97 44.39 .11 32.52 .41 31.84 26.27 43.7 25.97 44.39"/>
    <polygon points="20.61 47.32 .11 37.32 .42 36.67 20.91 46.67 20.61 47.32"/>
    <polygon points="14.39 48.9 .11 42.18 .39 41.54 14.67 48.26 14.39 48.9"/>
    <polygon points="8.28 51.56 .11 47.85 .41 47.12 8.58 50.83 8.28 51.56"/>
    <polygon points="20.96 88.38 12.71 88.38 12.71 48.22 14.71 48.22 14.71 86.38 18.96 86.38 18.96 46.66 20.96 46.66 20.96 88.38"/>
    <polygon points="32.83 88.38 24.32 88.38 24.32 43.72 26.32 43.72 26.32 86.38 30.83 86.38 30.83 41.65 32.83 41.65 32.83 88.38"/>
    <polygon points="44.32 88.38 36.06 88.38 36.06 39.38 38.06 39.38 38.06 86.38 42.32 86.38 42.32 36.44 44.32 36.44 44.32 88.38"/>
    <rect x="47.81" y="33.64" width="2" height="54.87"/>
    <polygon points="61.68 55.44 53.04 55.44 53.04 31.45 55.04 31.45 55.04 53.44 59.68 53.44 59.68 29.1 61.68 29.1 61.68 55.44"/>
    <polygon points="73.04 55.44 64.92 55.44 64.92 26.66 66.92 26.66 66.92 53.44 71.04 53.44 71.04 26.66 73.04 26.66 73.04 55.44"/>
    <polygon points="85.04 55.44 76.66 55.44 76.66 28.56 78.66 28.56 78.66 53.44 83.04 53.44 83.04 30.11 85.04 30.11 85.04 55.44"/>
    <rect x="89.04" y="32.71" width="2" height="55.8"/>
    <polygon points="104.06 88.38 95.04 88.38 95.04 35.1 97.04 35.1 97.04 86.38 102.06 86.38 102.06 37.77 104.06 37.77 104.06 88.38"/>
    <polygon points="115.8 88.38 107.55 88.38 107.55 39.17 109.55 39.17 109.55 86.38 113.8 86.38 113.8 41.83 115.8 41.83 115.8 88.38"/>
    <polygon points="127.6 88.38 119.34 88.38 119.34 44.26 121.34 44.26 121.34 86.38 125.6 86.38 125.6 46.88 127.6 46.88 127.6 88.38"/>
    <polygon points="133.43 55.3 127.06 55.3 127.06 53.3 131.43 53.3 131.43 49.44 133.43 49.44 133.43 55.3"/>
    <polygon points="13.4 56.47 6.64 56.47 6.64 50.87 8.64 50.87 8.64 54.47 13.4 54.47 13.4 56.47"/>
    <rect x="30.83" y="41.41" width=".5" height="1.09"/>
    <rect x="24.31" y="43.5" width=".5" height="1.09"/>
    <rect x="12.71" y="48.08" width=".5" height="1.09"/>
    <rect x="18.96" y="46.43" width=".5" height=".27"/>
    <rect x="6.64" y="50.45" width=".5" height="1.09"/>
    <g>
      <path d="M21.52,122h5.52v.36h-7.57v-11.98h2.06v11.62Z"/>
      <path d="M37.2,110.75h-5.52v5.44h4.15v.36h-4.15v5.44h5.52v.36h-7.57v-11.98h7.57v.36Z"/>
      <path d="M49.34,116.57v5.79h-4.44c-1.11,0-2.12-.26-3.05-.79-.93-.53-1.66-1.25-2.2-2.17-.54-.92-.81-1.93-.81-3.03s.27-2.12.82-3.06c.55-.93,1.28-1.67,2.21-2.22.93-.55,1.94-.82,3.03-.82.85,0,1.65.17,2.41.5.76.33,1.42.8,1.99,1.41l-.24.27c-1.15-1.21-2.54-1.82-4.17-1.82-.78,0-1.46.22-2.04.67-.61.46-1.07,1.06-1.39,1.79-.32.73-.48,1.82-.48,3.27,0,1,.08,1.81.25,2.45.16.64.38,1.14.64,1.5.26.36.59.7.99,1,.61.45,1.29.67,2.04.67h2.38v-5.06h-2.84v-.36h4.9Z"/>
      <path d="M63.87,116.37c0,1.09-.27,2.11-.82,3.04-.55.93-1.29,1.68-2.21,2.23-.93.55-1.94.83-3.03.83s-2.1-.27-3.03-.82c-.93-.55-1.67-1.29-2.21-2.22-.54-.93-.82-1.95-.82-3.06s.27-2.12.82-3.06c.55-.93,1.28-1.67,2.21-2.22.93-.55,1.94-.82,3.03-.82s2.1.28,3.03.83c.93.55,1.67,1.3,2.21,2.23.54.93.82,1.95.82,3.04ZM61.72,116.37c0-1.44-.16-2.53-.49-3.27-.33-.73-.79-1.33-1.38-1.79-.58-.44-1.26-.66-2.04-.66s-1.47.22-2.04.66c-.61.46-1.07,1.06-1.39,1.79-.32.73-.48,1.82-.48,3.27s.16,2.53.48,3.27c.32.73.79,1.33,1.39,1.79.58.45,1.26.67,2.04.67s1.44-.22,2.04-.67c.59-.46,1.06-1.06,1.38-1.79.33-.73.49-1.82.49-3.27Z"/>
      <path d="M79.68,118.96c0,.66-.17,1.25-.52,1.78s-.84.96-1.47,1.26c-.64.31-1.39.46-2.25.46-.81,0-1.61-.17-2.38-.52-.78-.35-1.34-.85-1.69-1.5l.22-.29c.33.63.86,1.11,1.6,1.45.74.33,1.49.5,2.26.5.83,0,1.48-.19,1.96-.58.48-.39.72-.93.72-1.64,0-.55-.25-1.04-.74-1.47-.49-.43-1.26-.87-2.3-1.3-.91-.39-1.62-.73-2.14-1.03-.52-.3-.91-.64-1.18-1.04s-.41-.87-.41-1.43c0-.7.19-1.31.55-1.81.37-.5.87-.89,1.48-1.15s1.29-.39,2.02-.39c.82,0,1.6.19,2.33.56s1.25.89,1.57,1.53l-.24.29c-.3-.63-.8-1.13-1.49-1.48-.69-.36-1.4-.54-2.13-.54-.85,0-1.52.17-2,.51s-.73.84-.73,1.49c0,.38.11.7.34.97s.53.51.91.72c.38.21.96.49,1.72.84l.54.25c1.18.53,2.05,1.06,2.61,1.58s.85,1.17.85,1.95Z"/>
      <path d="M91.4,113.64c0,.52-.14,1.04-.43,1.54-.29.5-.72.92-1.31,1.25-.59.33-1.32.49-2.19.49h-3.19v5.44h-2.06v-11.98h5.24c.86,0,1.59.16,2.19.48.59.32,1.03.73,1.32,1.24.29.5.43,1.02.43,1.54ZM89.34,113.62c0-.53-.12-1.02-.36-1.47-.24-.44-.54-.79-.93-1.04s-.78-.37-1.19-.37h-2.58v5.81h2.58c.41,0,.81-.13,1.19-.38s.69-.61.93-1.06.36-.95.36-1.49Z"/>
      <path d="M99.63,122.36l-1.53-3.48h-5.06l-1.6,3.48h-.4l5.55-12.09,5.28,12.09h-2.24ZM93.2,118.52h4.75l-2.31-5.3-2.44,5.3Z"/>
      <path d="M113.63,120.32c-.57.68-1.26,1.21-2.06,1.58s-1.65.56-2.55.56c-1.09,0-2.1-.27-3.03-.82-.93-.55-1.67-1.29-2.21-2.22-.54-.93-.82-1.95-.82-3.06s.27-2.12.82-3.06c.55-.93,1.28-1.67,2.21-2.22.93-.55,1.94-.82,3.03-.82.85,0,1.65.17,2.41.5.76.33,1.42.8,1.99,1.41l-.24.27c-1.15-1.21-2.54-1.82-4.17-1.82-.75,0-1.43.22-2.04.67-.61.46-1.07,1.06-1.39,1.79-.32.73-.48,1.82-.48,3.27s.16,2.53.48,3.27c.32.73.79,1.33,1.39,1.79.61.45,1.29.67,2.04.67,1.72,0,3.18-.69,4.37-2.06l.24.27Z"/>
      <path d="M123.61,110.75h-5.52v5.44h4.15v.36h-4.15v5.44h5.52v.36h-7.57v-11.98h7.57v.36Z"/>
    </g>
  </g>
</svg>